<svg xmlns="http://www.w3.org/2000/svg" width="48" height="36" viewBox="0 0 48 36">
  <g id="dinner-white" transform="translate(0 -64)">
    <g id="Group_2" data-name="Group 2" transform="translate(0 64)">
      <g id="Group_1" data-name="Group 1">
        <path id="Path_1" data-name="Path 1" d="M45,91.279A20.833,20.833,0,0,0,28.047,70.432,4.452,4.452,0,0,0,28.5,68.5a4.5,4.5,0,1,0-9,0,4.452,4.452,0,0,0,.453,1.932A20.822,20.822,0,0,0,3,91.276,4.49,4.49,0,0,0,4.5,100h39A4.488,4.488,0,0,0,45,91.279ZM24,67a1.5,1.5,0,0,1,.048,2.991h-.1A1.5,1.5,0,0,1,24,67Zm-9.411,8.646a18.013,18.013,0,0,1,9.333-2.652A.681.681,0,0,1,24,73a.689.689,0,0,0,.078-.009A18.008,18.008,0,0,1,42.009,91H5.991A17.933,17.933,0,0,1,14.589,75.646ZM43.5,97H4.5a1.5,1.5,0,0,1,0-3h39a1.5,1.5,0,0,1,0,3Z" transform="translate(0 -64)" fill="#fff"/>
      </g>
    </g>
    <g id="Group_4" data-name="Group 4" transform="translate(22.5 76)">
      <g id="Group_3" data-name="Group 3">
        <path id="Path_2" data-name="Path 2" d="M252.669,196.989A15.019,15.019,0,0,0,241.5,192a1.5,1.5,0,0,0,0,3,12.015,12.015,0,0,1,8.937,3.993,1.5,1.5,0,1,0,2.232-2Z" transform="translate(-240 -192)" fill="#fff"/>
      </g>
    </g>
  </g>
</svg>
