<svg xmlns="http://www.w3.org/2000/svg" width="48" height="48.007" viewBox="0 0 48 48.007">
  <g id="time-white" transform="translate(-2.5 -3.3)">
    <path id="Path_5" data-name="Path 5" d="M2.5,28.716V25.9c.038-.34.076-.671.113-1.011a23.709,23.709,0,0,1,6.03-13.582A23.55,23.55,0,0,1,22.368,3.678c.907-.161,1.815-.255,2.732-.378h2.817c.8.1,1.607.17,2.41.3A23.4,23.4,0,0,1,43.3,10.19a23.431,23.431,0,0,1,7.079,19.528,22.885,22.885,0,0,1-5.86,13.412,23.5,23.5,0,0,1-17,8.148,22.83,22.83,0,0,1-13.242-3.346,23.638,23.638,0,0,1-11.4-16.494C2.708,30.54,2.623,29.624,2.5,28.716ZM26.064,7.26A20.052,20.052,0,1,0,46.555,26.854,20.119,20.119,0,0,0,26.064,7.26Z" fill="#fff"/>
    <path id="Path_6" data-name="Path 6" d="M239.574,93.092c0,2.183-.009,4.376.009,6.56a1.116,1.116,0,0,0,.246.662c2.25,2.58,4.518,5.142,6.777,7.713a2.026,2.026,0,0,1,.123,2.864,1.95,1.95,0,0,1-2.7.142,5.243,5.243,0,0,1-.4-.4c-2.5-2.836-5.01-5.662-7.486-8.516a2.178,2.178,0,0,1-.492-1.267c-.038-4.811-.028-9.622-.009-14.433a1.966,1.966,0,0,1,3.932.038c.009,2.2,0,4.424,0,6.635Z" transform="translate(-211.09 -73.525)" fill="#fff"/>
  </g>
</svg>
