<svg xmlns="http://www.w3.org/2000/svg" width="48" height="51.409" viewBox="0 0 48 51.409">
  <path id="user-white" d="M50.265,54a2.06,2.06,0,0,1-1.015-.6,1.888,1.888,0,0,1-.427-1.129,19.7,19.7,0,0,0-3.682-10.136,20.084,20.084,0,0,0-13.647-8.475,20.493,20.493,0,0,0-20.907,9.832A19.863,19.863,0,0,0,7.843,51.7c-.028.275-.038.541-.085.816a1.689,1.689,0,0,1-1.291,1.433.8.8,0,0,0-.133.057H5.746a.333.333,0,0,0-.076-.047,1.681,1.681,0,0,1-1.329-1.955,24.246,24.246,0,0,1,.418-2.866A23.834,23.834,0,0,1,19.27,31.66c.37-.161.75-.294,1.177-.465-.114-.076-.2-.133-.275-.19-5.523-3.749-7.943-8.949-6.994-15.564a15.162,15.162,0,0,1,12.9-12.679c.427-.057.854-.1,1.272-.161h1.879a2.427,2.427,0,0,0,.256.047A15.378,15.378,0,0,1,36.466,31c-.085.057-.161.114-.275.19.1.047.161.066.209.085a23.464,23.464,0,0,1,7.64,4.47,23.8,23.8,0,0,1,8.067,14.729c.085.55.142,1.1.218,1.642v.057a2.481,2.481,0,0,0-.057.256,1.393,1.393,0,0,1-.446.987,6.075,6.075,0,0,1-.959.569C50.655,54,50.455,54,50.265,54ZM28.3,29.875a11.929,11.929,0,1,0-11.948-11.9A11.9,11.9,0,0,0,28.3,29.875Z" transform="translate(-4.325 -2.6)" fill="#fff"/>
</svg>
